<?xml version="1.0" encoding="UTF-8" standalone="no"?>
<svg width="23px" height="25px" viewBox="0 0 23 25" version="1.1" xmlns="http://www.w3.org/2000/svg" xmlns:xlink="http://www.w3.org/1999/xlink" xmlns:sketch="http://www.bohemiancoding.com/sketch/ns">
    <!-- Generator: Sketch 3.3.1 (12002) - http://www.bohemiancoding.com/sketch -->
    <title>Oval 28 + Rectangle 46</title>
    <desc>Created with Sketch.</desc>
    <defs></defs>
    <g id="Page-1" stroke="none" stroke-width="1" fill="none" fill-rule="evenodd" sketch:type="MSPage">
        <g id="Oval-28-+-Rectangle-46" sketch:type="MSLayerGroup" fill="#FFFFFF">
            <ellipse id="Oval-28" sketch:type="MSShapeGroup" cx="11.5" cy="12.5" rx="4.47222222" ry="4.375"></ellipse>
            <path d="M10.2222222,1.2798625 C10.2222222,0.573013961 10.7893828,0 11.5,0 C12.2056972,0 12.7777778,0.576782227 12.7777778,1.2798625 L12.7777778,4.9701375 C12.7777778,5.67698604 12.2106172,6.25 11.5,6.25 C10.7943028,6.25 10.2222222,5.67321777 10.2222222,4.9701375 L10.2222222,1.2798625 Z M20.7584572,5.78334324 C21.370606,5.42991896 22.1504309,5.63458748 22.5057395,6.25 C22.8585881,6.86115169 22.6451203,7.64497913 22.036235,7.99651927 L18.8403631,9.84165676 C18.2282143,10.195081 17.4483893,9.99041252 17.0930807,9.375 C16.7402321,8.76384831 16.9536999,7.98002087 17.5625853,7.62848073 L20.7584572,5.78334324 Z M22.036235,17.0034807 C22.6483837,17.356905 22.8610481,18.1345875 22.5057395,18.75 C22.1528909,19.3611517 21.3673426,19.5681969 20.7584572,19.2166568 L17.5625853,17.3715193 C16.9504365,17.018095 16.7377721,16.2404125 17.0930807,15.625 C17.4459293,15.0138483 18.2314777,14.8068031 18.8403631,15.1583432 L22.036235,17.0034807 Z M12.7777778,23.7201375 C12.7777778,24.426986 12.2106172,25 11.5,25 C10.7943028,25 10.2222222,24.4232178 10.2222222,23.7201375 L10.2222222,20.0298625 C10.2222222,19.323014 10.7893828,18.75 11.5,18.75 C12.2056972,18.75 12.7777778,19.3267822 12.7777778,20.0298625 L12.7777778,23.7201375 Z M2.24154282,19.2166568 C1.62939403,19.570081 0.849569079,19.3654125 0.494260494,18.75 C0.141411903,18.1388483 0.354879665,17.3550209 0.963765047,17.0034807 L4.15963694,15.1583432 C4.77178573,14.804919 5.55161068,15.0095875 5.90691927,15.625 C6.25976786,16.2361517 6.0463001,17.0199791 5.43741471,17.3715193 L2.24154282,19.2166568 Z M0.963765047,7.99651927 C0.351616252,7.643095 0.138951908,6.86541252 0.494260494,6.25 C0.847109084,5.63884831 1.63265744,5.4318031 2.24154282,5.78334324 L5.43741471,7.62848073 C6.04956351,7.981905 6.26222785,8.75958748 5.90691927,9.375 C5.55407068,9.98615169 4.76852232,10.1931969 4.15963694,9.84165676 L0.963765047,7.99651927 Z" id="Rectangle-46" sketch:type="MSShapeGroup"></path>
        </g>
    </g>
</svg>