<?xml version="1.0" encoding="UTF-8" standalone="no"?>
<svg width="16px" height="20px" viewBox="0 0 16 20" version="1.1" xmlns="http://www.w3.org/2000/svg" xmlns:xlink="http://www.w3.org/1999/xlink" xmlns:sketch="http://www.bohemiancoding.com/sketch/ns">
    <!-- Generator: Sketch 3.3.1 (12002) - http://www.bohemiancoding.com/sketch -->
    <title>Oval 28 Copy + Rectangle 46 Copy</title>
    <desc>Created with Sketch.</desc>
    <defs></defs>
    <g id="Page-1" stroke="none" stroke-width="1" fill="none" fill-rule="evenodd" sketch:type="MSPage">
        <g id="Oval-28-Copy-+-Rectangle-46-Copy" sketch:type="MSLayerGroup" transform="translate(-1.000000, 0.000000)" fill="#FFFFFF">
            <ellipse id="Oval-28-Copy" sketch:type="MSShapeGroup" cx="9" cy="10" rx="3.21505022" ry="3.18289972"></ellipse>
            <path d="M8.08141422,1.82615402 C8.08141422,1.31796743 8.48914214,0.906000805 9,0.906000805 C9.50732092,0.906000805 9.91858578,1.32562137 9.91858578,1.82615402 L9.91858578,4.53284719 C9.91858578,5.04103377 9.51085786,5.4530004 9,5.4530004 C8.49267908,5.4530004 8.08141422,5.03337983 8.08141422,4.53284719 L8.08141422,1.82615402 Z M15.6791293,5.11755839 C16.1192318,4.8634651 16.6798693,5.01058451 16.9352982,5.4530004 C17.1889587,5.8923532 17.031189,6.45832931 16.597715,6.70859563 L14.25365,8.06194221 C13.8135475,8.31603551 13.25291,8.16891609 12.9974811,7.7265002 C12.7438206,7.2871474 12.9015902,6.7211713 13.3350642,6.47090497 L15.6791293,5.11755839 Z M16.597715,13.2914044 C17.0378175,13.5454977 17.1907272,14.1045837 16.9352982,14.5469996 C16.6816378,14.9863524 16.1126033,15.1327079 15.6791293,14.8824416 L13.3350642,13.529095 C12.8949617,13.2750017 12.7420521,12.7159157 12.9974811,12.2734998 C13.2511415,11.834147 13.820176,11.6877915 14.25365,11.9380578 L16.597715,13.2914044 Z M9.91858578,18.173846 C9.91858578,18.6820326 9.51085786,19.0939992 9,19.0939992 C8.49267908,19.0939992 8.08141422,18.6743786 8.08141422,18.173846 L8.08141422,15.4671528 C8.08141422,14.9589662 8.48914214,14.5469996 9,14.5469996 C9.50732092,14.5469996 9.91858578,14.9666202 9.91858578,15.4671528 L9.91858578,18.173846 Z M2.32087073,14.8824416 C1.88076823,15.1365349 1.32013071,14.9894155 1.06470178,14.5469996 C0.811041321,14.1076468 0.968810962,13.5416707 1.40228495,13.2914044 L3.74634999,11.9380578 C4.18645249,11.6839645 4.74709001,11.8310839 5.00251894,12.2734998 C5.2561794,12.7128526 5.09840976,13.2788287 4.66493577,13.529095 L2.32087073,14.8824416 Z M1.40228495,6.70859563 C0.962182455,6.45450234 0.809272847,5.89541629 1.06470178,5.4530004 C1.31836224,5.0136476 1.88739674,4.86729207 2.32087073,5.11755839 L4.66493577,6.47090497 C5.10503826,6.72499827 5.25794787,7.28408431 5.00251894,7.7265002 C4.74885848,8.165853 4.17982398,8.31220854 3.74634999,8.06194221 L1.40228495,6.70859563 Z" id="Rectangle-46-Copy" sketch:type="MSShapeGroup"></path>
        </g>
    </g>
</svg>