<?xml version="1.0" encoding="UTF-8" standalone="no"?>
<svg width="46px" height="46px" viewBox="0 0 46 46" version="1.1" xmlns="http://www.w3.org/2000/svg" xmlns:xlink="http://www.w3.org/1999/xlink" xmlns:sketch="http://www.bohemiancoding.com/sketch/ns">
    <!-- Generator: Sketch 3.3.1 (12002) - http://www.bohemiancoding.com/sketch -->
    <title>btn_stroboscope</title>
    <desc>Created with Sketch.</desc>
    <defs></defs>
    <g id="Page-1" stroke="none" stroke-width="1" fill="none" fill-rule="evenodd" sketch:type="MSPage">
        <g id="1" sketch:type="MSArtboardGroup" transform="translate(-26.000000, -359.000000)">
            <g id="SCREEN" sketch:type="MSLayerGroup" transform="translate(-7.000000, 0.000000)">
                <g id="btn_stroboscope" transform="translate(33.000000, 359.000000)" sketch:type="MSShapeGroup">
                    <circle id="Oval-10" fill="#202020" cx="23" cy="23" r="23"></circle>
                    <path d="M21.5953125,7.01236439 C21.5953125,6.26286375 22.19453,5.65527344 22.9453125,5.65527344 C23.6908969,5.65527344 24.2953125,6.25657368 24.2953125,7.01236439 L24.2953125,12.2981825 C24.2953125,13.0476831 23.696095,13.6552734 22.9453125,13.6552734 C22.1997281,13.6552734 21.5953125,13.0539732 21.5953125,12.2981825 L21.5953125,7.01236439 Z M31.0772001,9.21593323 C31.5177455,8.60957448 32.3596553,8.47023481 32.9670511,8.91153368 C33.5702415,9.34977721 33.7057886,10.1915059 33.2615459,10.8029534 L30.15462,15.0792701 C29.7140746,15.6856288 28.8721648,15.8249685 28.264769,15.3836696 C27.6615786,14.9454261 27.5260315,14.1036974 27.9702741,13.4922499 L31.0772001,9.21593323 Z M37.452983,16.5719716 C38.1658004,16.3403631 38.9288216,16.7224971 39.1608261,17.4365337 C39.3912244,18.1456266 39.0061285,18.906272 38.2873289,19.1398241 L33.2602171,20.7732318 C32.5473996,21.0048402 31.7843785,20.6227062 31.552374,19.9086696 C31.3219757,19.1995767 31.7070715,18.4389313 32.4258712,18.2053792 L37.452983,16.5719716 Z M38.2873289,26.2707227 C39.0001463,26.5023312 39.3928307,27.2599766 39.1608261,27.9740132 C38.9304278,28.6831061 38.1717826,29.0721275 37.452983,28.8385753 L32.4258712,27.2051677 C31.7130538,26.9735593 31.3203694,26.2159138 31.552374,25.5018772 C31.7827722,24.7927843 32.5414174,24.4037629 33.2602171,24.6373151 L38.2873289,26.2707227 Z M33.2615459,34.6075935 C33.7020914,35.2139522 33.5744468,36.0577143 32.9670511,36.4990132 C32.3638606,36.9372567 31.5214427,36.8060612 31.0772001,36.1946136 L27.9702741,31.918297 C27.5297287,31.3119382 27.6573732,30.4681761 28.264769,30.0268772 C28.8679595,29.5886337 29.7103774,29.7198293 30.15462,30.3312768 L33.2615459,34.6075935 Z M24.2953125,38.3981825 C24.2953125,39.1476831 23.696095,39.7552734 22.9453125,39.7552734 C22.1997281,39.7552734 21.5953125,39.1539732 21.5953125,38.3981825 L21.5953125,33.1123644 C21.5953125,32.3628638 22.19453,31.7552734 22.9453125,31.7552734 C23.6908969,31.7552734 24.2953125,32.3565737 24.2953125,33.1123644 L24.2953125,38.3981825 Z M14.8134249,36.1946136 C14.3728795,36.8009724 13.5309697,36.9403121 12.9235739,36.4990132 C12.3203835,36.0607697 12.1848364,35.219041 12.6290791,34.6075935 L15.736005,30.3312768 C16.1765504,29.724918 17.0184602,29.5855784 17.625856,30.0268772 C18.2290464,30.4651208 18.3645935,31.3068494 17.9203509,31.918297 L14.8134249,36.1946136 Z M8.43764203,28.8385753 C7.72482457,29.0701838 6.96180345,28.6880498 6.7297989,27.9740132 C6.49940064,27.2649203 6.88449647,26.5042749 7.60329615,26.2707227 L12.6304079,24.6373151 C13.3432254,24.4057067 14.1062465,24.7878407 14.338251,25.5018772 C14.5686493,26.2109702 14.1835535,26.9716155 13.4647538,27.2051677 L8.43764203,28.8385753 Z M7.60329615,19.1398241 C6.89047868,18.9082157 6.49779435,18.1505703 6.7297989,17.4365337 C6.96019715,16.7274408 7.71884235,16.3384194 8.43764203,16.5719716 L13.4647538,18.2053792 C14.1775712,18.4369876 14.5702556,19.1946331 14.338251,19.9086696 C14.1078528,20.6177626 13.3492076,21.0067839 12.6304079,20.7732318 L7.60329615,19.1398241 Z M12.6290791,10.8029534 C12.1885336,10.1965947 12.3161782,9.35283256 12.9235739,8.91153368 C13.5267644,8.47329016 14.3691823,8.60448571 14.8134249,9.21593323 L17.9203509,13.4922499 C18.3608963,14.0986087 18.2332518,14.9423708 17.625856,15.3836696 C17.0226655,15.8219132 16.1802476,15.6907176 15.736005,15.0792701 L12.6290791,10.8029534 Z" id="Rectangle-66" opacity="0.2" fill="#FFFFFF"></path>
                </g>
            </g>
        </g>
    </g>
</svg>