<?xml version="1.0" encoding="UTF-8" standalone="no"?>
<svg width="840px" height="68px" viewBox="0 0 840 68" version="1.1" xmlns="http://www.w3.org/2000/svg" xmlns:xlink="http://www.w3.org/1999/xlink" xmlns:sketch="http://www.bohemiancoding.com/sketch/ns">
    <!-- Generator: Sketch 3.3.1 (12002) - http://www.bohemiancoding.com/sketch -->
    <title>Group</title>
    <desc>Created with Sketch.</desc>
    <defs></defs>
    <g id="Page-1" stroke="none" stroke-width="1" fill="none" fill-rule="evenodd" sketch:type="MSPage">
        <g id="Group" sketch:type="MSLayerGroup" transform="translate(-11.000000, -5.000000)">
            <rect id="Rectangle-9-Copy-41" fill="#E74C3C" sketch:type="MSShapeGroup" x="11" y="37" width="2" height="36.5399286"></rect>
            <rect id="Rectangle-9-Copy-34" fill="#5B5B5B" sketch:type="MSShapeGroup" x="109" y="55.2699643" width="2" height="18.2699643"></rect>
            <rect id="Rectangle-9-Copy-33" fill="#5B5B5B" sketch:type="MSShapeGroup" x="102" y="55.2699643" width="2" height="18.2699643"></rect>
            <rect id="Rectangle-9-Copy-32" fill="#5B5B5B" sketch:type="MSShapeGroup" x="95" y="55.2699643" width="2" height="18.2699643"></rect>
            <rect id="Rectangle-9-Copy-31" fill="#5B5B5B" sketch:type="MSShapeGroup" x="88" y="55.2699643" width="2" height="18.2699643"></rect>
            <rect id="Rectangle-9-Copy-30" fill="#5B5B5B" sketch:type="MSShapeGroup" x="81" y="55.2699643" width="2" height="18.2699643"></rect>
            <rect id="Rectangle-9-Copy-29" fill="#5B5B5B" sketch:type="MSShapeGroup" x="74" y="55.2699643" width="2" height="18.2699643"></rect>
            <rect id="Rectangle-9-Copy-28" fill="#5B5B5B" sketch:type="MSShapeGroup" x="67" y="55.2699643" width="2" height="18.2699643"></rect>
            <rect id="Rectangle-9-Copy-27" fill="#5B5B5B" sketch:type="MSShapeGroup" x="60" y="55.2699643" width="2" height="18.2699643"></rect>
            <rect id="Rectangle-9-Copy-26" fill="#5B5B5B" sketch:type="MSShapeGroup" x="53" y="55.2699643" width="2" height="18.2699643"></rect>
            <rect id="Rectangle-9-Copy-25" fill="#5B5B5B" sketch:type="MSShapeGroup" x="46" y="55.2699643" width="2" height="18.2699643"></rect>
            <rect id="Rectangle-9-Copy-24" fill="#5B5B5B" sketch:type="MSShapeGroup" x="39" y="55.2699643" width="2" height="18.2699643"></rect>
            <rect id="Rectangle-9-Copy-23" fill="#5B5B5B" sketch:type="MSShapeGroup" x="32" y="55.2699643" width="2" height="18.2699643"></rect>
            <rect id="Rectangle-9-Copy-22" fill="#5B5B5B" sketch:type="MSShapeGroup" x="25" y="55.2699643" width="2" height="18.2699643"></rect>
            <rect id="Rectangle-9-Copy-21" fill="#5B5B5B" sketch:type="MSShapeGroup" x="18" y="55.2699643" width="2" height="18.2699643"></rect>
            <rect id="Rectangle-9-Copy-67" fill="#5B5B5B" sketch:type="MSShapeGroup" x="228" y="55.2699643" width="2" height="18.2699643"></rect>
            <rect id="Rectangle-9-Copy-70" fill="#5B5B5B" sketch:type="MSShapeGroup" x="214" y="55.2699643" width="2" height="18.2699643"></rect>
            <rect id="Rectangle-9-Copy-71" fill="#5B5B5B" sketch:type="MSShapeGroup" x="207" y="55.2699643" width="2" height="18.2699643"></rect>
            <rect id="Rectangle-9-Copy-72" fill="#5B5B5B" sketch:type="MSShapeGroup" x="200" y="55.2699643" width="2" height="18.2699643"></rect>
            <rect id="Rectangle-9-Copy-73" fill="#5B5B5B" sketch:type="MSShapeGroup" x="193" y="55.2699643" width="2" height="18.2699643"></rect>
            <rect id="Rectangle-9-Copy-74" fill="#5B5B5B" sketch:type="MSShapeGroup" x="186" y="55.2699643" width="2" height="18.2699643"></rect>
            <rect id="Rectangle-9-Copy-75" fill="#5B5B5B" sketch:type="MSShapeGroup" x="179" y="55.2699643" width="2" height="18.2699643"></rect>
            <rect id="Rectangle-9-Copy-76" fill="#5B5B5B" sketch:type="MSShapeGroup" x="172" y="55.2699643" width="2" height="18.2699643"></rect>
            <rect id="Rectangle-9-Copy-77" fill="#5B5B5B" sketch:type="MSShapeGroup" x="165" y="55.2699643" width="2" height="18.2699643"></rect>
            <rect id="Rectangle-9-Copy-78" fill="#5B5B5B" sketch:type="MSShapeGroup" x="158" y="55.2699643" width="2" height="18.2699643"></rect>
            <rect id="Rectangle-9-Copy-79" fill="#5B5B5B" sketch:type="MSShapeGroup" x="151" y="55.2699643" width="2" height="18.2699643"></rect>
            <rect id="Rectangle-9-Copy-80" fill="#5B5B5B" sketch:type="MSShapeGroup" x="144" y="55.2699643" width="2" height="18.2699643"></rect>
            <rect id="Rectangle-9-Copy-81" fill="#5B5B5B" sketch:type="MSShapeGroup" x="137" y="55.2699643" width="2" height="18.2699643"></rect>
            <rect id="Rectangle-9-Copy-82" fill="#5B5B5B" sketch:type="MSShapeGroup" x="130" y="55.2699643" width="2" height="18.2699643"></rect>
            <rect id="Rectangle-9-Copy-83" fill="#5B5B5B" sketch:type="MSShapeGroup" x="123" y="55.2699643" width="2" height="18.2699643"></rect>
            <rect id="Rectangle-9-Copy-62" fill="#FFFFFF" sketch:type="MSShapeGroup" x="116" y="37" width="2" height="36.5399286"></rect>
            <rect id="Rectangle-9-Copy-69" fill="#FFFFFF" sketch:type="MSShapeGroup" x="221" y="37" width="2" height="36.5399286"></rect>
            <rect id="Rectangle-9-Copy-54" fill="#5B5B5B" sketch:type="MSShapeGroup" x="305" y="55.2699643" width="2" height="18.2699643"></rect>
            <rect id="Rectangle-9-Copy-56" fill="#5B5B5B" sketch:type="MSShapeGroup" x="298" y="55.2699643" width="2" height="18.2699643"></rect>
            <rect id="Rectangle-9-Copy-57" fill="#5B5B5B" sketch:type="MSShapeGroup" x="291" y="55.2699643" width="2" height="18.2699643"></rect>
            <rect id="Rectangle-9-Copy-58" fill="#5B5B5B" sketch:type="MSShapeGroup" x="284" y="55.2699643" width="2" height="18.2699643"></rect>
            <rect id="Rectangle-9-Copy-59" fill="#5B5B5B" sketch:type="MSShapeGroup" x="277" y="55.2699643" width="2" height="18.2699643"></rect>
            <rect id="Rectangle-9-Copy-60" fill="#5B5B5B" sketch:type="MSShapeGroup" x="270" y="55.2699643" width="2" height="18.2699643"></rect>
            <rect id="Rectangle-9-Copy-61" fill="#5B5B5B" sketch:type="MSShapeGroup" x="263" y="55.2699643" width="2" height="18.2699643"></rect>
            <rect id="Rectangle-9-Copy-63" fill="#5B5B5B" sketch:type="MSShapeGroup" x="256" y="55.2699643" width="2" height="18.2699643"></rect>
            <rect id="Rectangle-9-Copy-64" fill="#5B5B5B" sketch:type="MSShapeGroup" x="249" y="55.2699643" width="2" height="18.2699643"></rect>
            <rect id="Rectangle-9-Copy-65" fill="#5B5B5B" sketch:type="MSShapeGroup" x="242" y="55.2699643" width="2" height="18.2699643"></rect>
            <rect id="Rectangle-9-Copy-66" fill="#5B5B5B" sketch:type="MSShapeGroup" x="235" y="55.2699643" width="2" height="18.2699643"></rect>
            <rect id="Rectangle-9-Copy-52" fill="#5B5B5B" sketch:type="MSShapeGroup" x="319" y="55.2699643" width="2" height="18.2699643"></rect>
            <rect id="Rectangle-9-Copy-53" fill="#5B5B5B" sketch:type="MSShapeGroup" x="312" y="55.2699643" width="2" height="18.2699643"></rect>
            <rect id="Rectangle-9-Copy-104" fill="#5B5B5B" sketch:type="MSShapeGroup" x="382" y="55.2699643" width="2" height="18.2699643"></rect>
            <rect id="Rectangle-9-Copy-105" fill="#5B5B5B" sketch:type="MSShapeGroup" x="375" y="55.2699643" width="2" height="18.2699643"></rect>
            <rect id="Rectangle-9-Copy-106" fill="#5B5B5B" sketch:type="MSShapeGroup" x="368" y="55.2699643" width="2" height="18.2699643"></rect>
            <rect id="Rectangle-9-Copy-107" fill="#5B5B5B" sketch:type="MSShapeGroup" x="361" y="55.2699643" width="2" height="18.2699643"></rect>
            <rect id="Rectangle-9-Copy-108" fill="#5B5B5B" sketch:type="MSShapeGroup" x="354" y="55.2699643" width="2" height="18.2699643"></rect>
            <rect id="Rectangle-9-Copy-109" fill="#5B5B5B" sketch:type="MSShapeGroup" x="347" y="55.2699643" width="2" height="18.2699643"></rect>
            <rect id="Rectangle-9-Copy-110" fill="#5B5B5B" sketch:type="MSShapeGroup" x="340" y="55.2699643" width="2" height="18.2699643"></rect>
            <rect id="Rectangle-9-Copy-111" fill="#5B5B5B" sketch:type="MSShapeGroup" x="333" y="55.2699643" width="2" height="18.2699643"></rect>
            <rect id="Rectangle-9-Copy-112" fill="#FFFFFF" sketch:type="MSShapeGroup" x="326" y="37" width="2" height="36.5399286"></rect>
            <rect id="Rectangle-9-Copy-116" fill="#5B5B5B" sketch:type="MSShapeGroup" x="410" y="55.2699643" width="2" height="18.2699643"></rect>
            <rect id="Rectangle-9-Copy-101" fill="#5B5B5B" sketch:type="MSShapeGroup" x="403" y="55.2699643" width="2" height="18.2699643"></rect>
            <rect id="Rectangle-9-Copy-102" fill="#5B5B5B" sketch:type="MSShapeGroup" x="396" y="55.2699643" width="2" height="18.2699643"></rect>
            <rect id="Rectangle-9-Copy-103" fill="#5B5B5B" sketch:type="MSShapeGroup" x="389" y="55.2699643" width="2" height="18.2699643"></rect>
            <rect id="Rectangle-9-Copy-114" fill="#5B5B5B" sketch:type="MSShapeGroup" x="424" y="55.2699643" width="2" height="18.2699643"></rect>
            <rect id="Rectangle-9-Copy-115" fill="#5B5B5B" sketch:type="MSShapeGroup" x="417" y="55.2699643" width="2" height="18.2699643"></rect>
            <rect id="Rectangle-9-Copy-130" fill="#5B5B5B" sketch:type="MSShapeGroup" x="487" y="55.2699643" width="2" height="18.2699643"></rect>
            <rect id="Rectangle-9-Copy-113" fill="#5B5B5B" sketch:type="MSShapeGroup" x="480" y="55.2699643" width="2" height="18.2699643"></rect>
            <rect id="Rectangle-9-Copy-117" fill="#5B5B5B" sketch:type="MSShapeGroup" x="473" y="55.2699643" width="2" height="18.2699643"></rect>
            <rect id="Rectangle-9-Copy-118" fill="#5B5B5B" sketch:type="MSShapeGroup" x="466" y="55.2699643" width="2" height="18.2699643"></rect>
            <rect id="Rectangle-9-Copy-119" fill="#5B5B5B" sketch:type="MSShapeGroup" x="459" y="55.2699643" width="2" height="18.2699643"></rect>
            <rect id="Rectangle-9-Copy-120" fill="#5B5B5B" sketch:type="MSShapeGroup" x="452" y="55.2699643" width="2" height="18.2699643"></rect>
            <rect id="Rectangle-9-Copy-121" fill="#5B5B5B" sketch:type="MSShapeGroup" x="445" y="55.2699643" width="2" height="18.2699643"></rect>
            <rect id="Rectangle-9-Copy-122" fill="#5B5B5B" sketch:type="MSShapeGroup" x="438" y="55.2699643" width="2" height="18.2699643"></rect>
            <rect id="Rectangle-9-Copy-123" fill="#FFFFFF" sketch:type="MSShapeGroup" x="431" y="37" width="2" height="36.5399286"></rect>
            <rect id="Rectangle-9-Copy-124" fill="#5B5B5B" sketch:type="MSShapeGroup" x="515" y="55.2699643" width="2" height="18.2699643"></rect>
            <rect id="Rectangle-9-Copy-125" fill="#5B5B5B" sketch:type="MSShapeGroup" x="508" y="55.2699643" width="2" height="18.2699643"></rect>
            <rect id="Rectangle-9-Copy-126" fill="#5B5B5B" sketch:type="MSShapeGroup" x="501" y="55.2699643" width="2" height="18.2699643"></rect>
            <rect id="Rectangle-9-Copy-127" fill="#5B5B5B" sketch:type="MSShapeGroup" x="494" y="55.2699643" width="2" height="18.2699643"></rect>
            <rect id="Rectangle-9-Copy-128" fill="#5B5B5B" sketch:type="MSShapeGroup" x="529" y="55.2699643" width="2" height="18.2699643"></rect>
            <rect id="Rectangle-9-Copy-129" fill="#5B5B5B" sketch:type="MSShapeGroup" x="522" y="55.2699643" width="2" height="18.2699643"></rect>
            <rect id="Rectangle-9-Copy-145" fill="#5B5B5B" sketch:type="MSShapeGroup" x="592" y="55.2699643" width="2" height="18.2699643"></rect>
            <rect id="Rectangle-9-Copy-131" fill="#5B5B5B" sketch:type="MSShapeGroup" x="585" y="55.2699643" width="2" height="18.2699643"></rect>
            <rect id="Rectangle-9-Copy-132" fill="#5B5B5B" sketch:type="MSShapeGroup" x="578" y="55.2699643" width="2" height="18.2699643"></rect>
            <rect id="Rectangle-9-Copy-133" fill="#5B5B5B" sketch:type="MSShapeGroup" x="571" y="55.2699643" width="2" height="18.2699643"></rect>
            <rect id="Rectangle-9-Copy-134" fill="#5B5B5B" sketch:type="MSShapeGroup" x="564" y="55.2699643" width="2" height="18.2699643"></rect>
            <rect id="Rectangle-9-Copy-135" fill="#5B5B5B" sketch:type="MSShapeGroup" x="557" y="55.2699643" width="2" height="18.2699643"></rect>
            <rect id="Rectangle-9-Copy-136" fill="#5B5B5B" sketch:type="MSShapeGroup" x="550" y="55.2699643" width="2" height="18.2699643"></rect>
            <rect id="Rectangle-9-Copy-137" fill="#5B5B5B" sketch:type="MSShapeGroup" x="543" y="55.2699643" width="2" height="18.2699643"></rect>
            <rect id="Rectangle-9-Copy-138" fill="#FFFFFF" sketch:type="MSShapeGroup" x="536" y="37" width="2" height="36.5399286"></rect>
            <rect id="Rectangle-9-Copy-139" fill="#5B5B5B" sketch:type="MSShapeGroup" x="620" y="55.2699643" width="2" height="18.2699643"></rect>
            <rect id="Rectangle-9-Copy-140" fill="#5B5B5B" sketch:type="MSShapeGroup" x="613" y="55.2699643" width="2" height="18.2699643"></rect>
            <rect id="Rectangle-9-Copy-141" fill="#5B5B5B" sketch:type="MSShapeGroup" x="606" y="55.2699643" width="2" height="18.2699643"></rect>
            <rect id="Rectangle-9-Copy-142" fill="#5B5B5B" sketch:type="MSShapeGroup" x="599" y="55.2699643" width="2" height="18.2699643"></rect>
            <rect id="Rectangle-9-Copy-143" fill="#5B5B5B" sketch:type="MSShapeGroup" x="634" y="55.2699643" width="2" height="18.2699643"></rect>
            <rect id="Rectangle-9-Copy-144" fill="#5B5B5B" sketch:type="MSShapeGroup" x="627" y="55.2699643" width="2" height="18.2699643"></rect>
            <rect id="Rectangle-9-Copy-160" fill="#5B5B5B" sketch:type="MSShapeGroup" x="697" y="55.2699643" width="2" height="18.2699643"></rect>
            <rect id="Rectangle-9-Copy-146" fill="#5B5B5B" sketch:type="MSShapeGroup" x="690" y="55.2699643" width="2" height="18.2699643"></rect>
            <rect id="Rectangle-9-Copy-147" fill="#5B5B5B" sketch:type="MSShapeGroup" x="683" y="55.2699643" width="2" height="18.2699643"></rect>
            <rect id="Rectangle-9-Copy-148" fill="#5B5B5B" sketch:type="MSShapeGroup" x="676" y="55.2699643" width="2" height="18.2699643"></rect>
            <rect id="Rectangle-9-Copy-149" fill="#5B5B5B" sketch:type="MSShapeGroup" x="669" y="55.2699643" width="2" height="18.2699643"></rect>
            <rect id="Rectangle-9-Copy-150" fill="#5B5B5B" sketch:type="MSShapeGroup" x="662" y="55.2699643" width="2" height="18.2699643"></rect>
            <rect id="Rectangle-9-Copy-151" fill="#5B5B5B" sketch:type="MSShapeGroup" x="655" y="55.2699643" width="2" height="18.2699643"></rect>
            <rect id="Rectangle-9-Copy-152" fill="#5B5B5B" sketch:type="MSShapeGroup" x="648" y="55.2699643" width="2" height="18.2699643"></rect>
            <rect id="Rectangle-9-Copy-153" fill="#FFFFFF" sketch:type="MSShapeGroup" x="641" y="37" width="2" height="36.5399286"></rect>
            <rect id="Rectangle-9-Copy-154" fill="#5B5B5B" sketch:type="MSShapeGroup" x="725" y="55.2699643" width="2" height="18.2699643"></rect>
            <rect id="Rectangle-9-Copy-155" fill="#5B5B5B" sketch:type="MSShapeGroup" x="718" y="55.2699643" width="2" height="18.2699643"></rect>
            <rect id="Rectangle-9-Copy-156" fill="#5B5B5B" sketch:type="MSShapeGroup" x="711" y="55.2699643" width="2" height="18.2699643"></rect>
            <rect id="Rectangle-9-Copy-157" fill="#5B5B5B" sketch:type="MSShapeGroup" x="704" y="55.2699643" width="2" height="18.2699643"></rect>
            <rect id="Rectangle-9-Copy-158" fill="#5B5B5B" sketch:type="MSShapeGroup" x="739" y="55.2699643" width="2" height="18.2699643"></rect>
            <rect id="Rectangle-9-Copy-159" fill="#5B5B5B" sketch:type="MSShapeGroup" x="732" y="55.2699643" width="2" height="18.2699643"></rect>
            <rect id="Rectangle-9-Copy-175" fill="#5B5B5B" sketch:type="MSShapeGroup" x="802" y="55.2699643" width="2" height="18.2699643"></rect>
            <rect id="Rectangle-9-Copy-161" fill="#5B5B5B" sketch:type="MSShapeGroup" x="795" y="55.2699643" width="2" height="18.2699643"></rect>
            <rect id="Rectangle-9-Copy-162" fill="#5B5B5B" sketch:type="MSShapeGroup" x="788" y="55.2699643" width="2" height="18.2699643"></rect>
            <rect id="Rectangle-9-Copy-163" fill="#5B5B5B" sketch:type="MSShapeGroup" x="781" y="55.2699643" width="2" height="18.2699643"></rect>
            <rect id="Rectangle-9-Copy-164" fill="#5B5B5B" sketch:type="MSShapeGroup" x="774" y="55.2699643" width="2" height="18.2699643"></rect>
            <rect id="Rectangle-9-Copy-165" fill="#5B5B5B" sketch:type="MSShapeGroup" x="767" y="55.2699643" width="2" height="18.2699643"></rect>
            <rect id="Rectangle-9-Copy-166" fill="#5B5B5B" sketch:type="MSShapeGroup" x="760" y="55.2699643" width="2" height="18.2699643"></rect>
            <rect id="Rectangle-9-Copy-167" fill="#5B5B5B" sketch:type="MSShapeGroup" x="753" y="55.2699643" width="2" height="18.2699643"></rect>
            <rect id="Rectangle-9-Copy-168" fill="#FFFFFF" sketch:type="MSShapeGroup" x="746" y="37" width="2" height="36.5399286"></rect>
            <rect id="Rectangle-9-Copy-169" fill="#5B5B5B" sketch:type="MSShapeGroup" x="830" y="55.2699643" width="2" height="18.2699643"></rect>
            <rect id="Rectangle-9-Copy-170" fill="#5B5B5B" sketch:type="MSShapeGroup" x="823" y="55.2699643" width="2" height="18.2699643"></rect>
            <rect id="Rectangle-9-Copy-171" fill="#5B5B5B" sketch:type="MSShapeGroup" x="816" y="55.2699643" width="2" height="18.2699643"></rect>
            <rect id="Rectangle-9-Copy-172" fill="#5B5B5B" sketch:type="MSShapeGroup" x="809" y="55.2699643" width="2" height="18.2699643"></rect>
            <rect id="Rectangle-9-Copy-173" fill="#5B5B5B" sketch:type="MSShapeGroup" x="844" y="55.2699643" width="2" height="18.2699643"></rect>
            <rect id="Rectangle-9-Copy-174" fill="#5B5B5B" sketch:type="MSShapeGroup" x="837" y="55.2699643" width="2" height="18.2699643"></rect>
            <text id="E" sketch:type="MSTextLayer" font-family="Helvetica" font-size="32" font-weight="normal" fill="#FFFFFF">
                <tspan x="211" y="32">E</tspan>
            </text>
            <text id="N" sketch:type="MSTextLayer" font-family="Helvetica" font-size="32" font-weight="normal" fill="#FFFFFF">
                <tspan x="0" y="32">N</tspan>
            </text>
            <text id="N-Copy" sketch:type="MSTextLayer" font-family="Helvetica" font-size="32" font-weight="normal" fill="#FFFFFF">
                <tspan x="840" y="32">N</tspan>
            </text>
            <text id="S" sketch:type="MSTextLayer" font-family="Helvetica" font-size="32" font-weight="normal" fill="#FFFFFF">
                <tspan x="421" y="31">S</tspan>
            </text>
            <text id="W" sketch:type="MSTextLayer" font-family="Helvetica" font-size="32" font-weight="normal" fill="#FFFFFF">
                <tspan x="627" y="32">W</tspan>
            </text>
        </g>
    </g>
</svg>