<?xml version="1.0" encoding="UTF-8" standalone="no"?>
<svg width="27px" height="27px" viewBox="0 0 27 27" version="1.1" xmlns="http://www.w3.org/2000/svg" xmlns:xlink="http://www.w3.org/1999/xlink" xmlns:sketch="http://www.bohemiancoding.com/sketch/ns">
    <!-- Generator: Sketch 3.3.1 (12002) - http://www.bohemiancoding.com/sketch -->
    <title>settings21 (3) copy</title>
    <desc>Created with Sketch.</desc>
    <defs></defs>
    <g id="Page-1" stroke="none" stroke-width="1" fill="none" fill-rule="evenodd" sketch:type="MSPage">
        <g id="settings21-(3)-copy" sketch:type="MSLayerGroup" transform="translate(13.500000, 13.500000) scale(-1, 1) translate(-13.500000, -13.500000) translate(2.000000, 2.000000)" stroke="#E74C3C" stroke-width="2">
            <path d="M22.134359,9.81464103 L19.8584872,9.43497436 C19.6930769,8.75871795 19.4518974,8.11228205 19.1377949,7.50935897 L20.5947436,5.70289744 C20.9046154,5.32112821 20.8905385,4.77182051 20.5638462,4.40335897 L19.6586923,3.38466667 C19.3305897,3.01658974 18.7864872,2.93874359 18.3714615,3.20094872 L16.4251538,4.4244359 C15.5691026,3.82633333 14.5994103,3.38466667 13.553359,3.12838462 L13.1725897,0.840307692 C13.0926923,0.355820513 12.6734359,0.000333333333 12.1812821,0.000333333333 L10.8172308,0.000333333333 C10.3260769,0.000333333333 9.90541026,0.355820513 9.82728205,0.840307692 L9.4444359,3.12910256 C8.57958974,3.34084615 7.76871795,3.68264103 7.02871795,4.13279487 L5.17774359,2.81182051 C4.77882051,2.52682051 4.23089744,2.57138462 3.88276923,2.91876923 L2.91910256,3.88312821 C2.57171795,4.23125641 2.52715385,4.77917949 2.81289744,5.17810256 L4.13694872,7.03261538 C3.69102564,7.76702564 3.35274359,8.57328205 3.14102564,9.4304359 L0.839923077,9.81466667 C0.356179487,9.8945641 0,10.3138462 0,10.8060256 L0,12.169 C0,12.6611282 0.356179487,13.0804615 0.839923077,13.160359 L3.14102564,13.5445897 C3.31489744,14.2499231 3.56730769,14.9236667 3.90279487,15.548359 L2.45248718,17.3446154 C2.14366667,17.7260256 2.15664103,18.2756923 2.48333333,18.6438205 L3.38779487,19.6625385 C3.71592308,20.0313077 4.26030769,20.1077436 4.67538462,19.8462051 L6.64974359,18.6059487 C7.48515385,19.177359 8.43025641,19.5973333 9.4444359,19.8462051 L9.82728205,22.1346667 C9.9054359,22.6191795 10.3260769,22.9746667 10.8172308,22.9746667 L12.1812821,22.9746667 C12.6734359,22.9746667 13.0926923,22.6192051 13.1725897,22.1346923 L13.554,19.8462308 C14.4080513,19.6373333 15.208641,19.3014872 15.9420513,18.8590513 L17.8701538,20.2361026 C18.268359,20.5221282 18.8166923,20.4772564 19.1644615,20.1287692 L20.1285128,19.1647436 C20.4754872,18.8176667 20.5224872,18.2700513 20.2343333,17.8704103 L18.8616154,15.9458205 C19.3088205,15.2089487 19.6488974,14.4012564 19.8592821,13.5402821 L22.1351282,13.1602821 C22.6202821,13.0803846 22.9750256,12.6610769 22.9750256,12.1689231 L22.9750256,10.8059487 C22.9743077,10.3138462 22.6195641,9.8945641 22.134359,9.81464103 L22.134359,9.81464103 Z M11.5235962,16.8849487 C8.54331204,16.8849487 6.12616033,14.4673472 6.12616033,11.4875128 C6.12616033,8.50722863 8.54331204,6.09007692 11.5235962,6.09007692 C14.5033664,6.09007692 16.9209679,8.50722863 16.9209679,11.4875128 C16.9209679,14.4673472 14.5033664,16.8849487 11.5235962,16.8849487 L11.5235962,16.8849487 Z" id="settings_1_" sketch:type="MSShapeGroup"></path>
        </g>
    </g>
</svg>